<?xml version="1.0" encoding="UTF-8"?>
<svg xmlns="http://www.w3.org/2000/svg" xmlns:xlink="http://www.w3.org/1999/xlink" viewBox="0 0 3060 1980">
  <defs>
    <style>
      .uuid-c6c9628c-a097-463a-93a7-b52982af4c90 {
        mask: url(#uuid-bf109566-9751-4bfb-81af-1240c190f496);
      }

      .uuid-8670137e-79b8-4fdd-add0-c12395a4faf2, .uuid-1fd0f7a5-39eb-4d94-8fd7-0a2d15b22ad8, .uuid-6a785f4a-d734-43f9-915f-e02ab822e06a {
        opacity: .7;
      }

      .uuid-408c9526-82ee-4bd1-8925-0532d161471f {
        fill: #5db3ff;
      }

      .uuid-408c9526-82ee-4bd1-8925-0532d161471f, .uuid-a919d113-cc95-4bb1-843d-4b36b649778f, .uuid-571ed2a1-7bfd-4bc8-8905-2a3d6ada6ade, .uuid-dc6df0d0-5c2a-47f4-a1a5-3b132f6bdf8b, .uuid-62e80753-87cb-4062-8311-cb156759ff33, .uuid-07f8e760-2cec-490a-97e0-8af7ad2d3eee, .uuid-83c28ec9-dd2e-4849-adb4-ba44166d53fc, .uuid-31afb815-2d50-439d-84c4-cbbc37557ff2, .uuid-1fd0f7a5-39eb-4d94-8fd7-0a2d15b22ad8, .uuid-cc40b4be-c28e-42db-a058-8966b11ee95e, .uuid-92d88ef4-febd-4b4d-a381-3d4e69172734, .uuid-7dbf5543-00e8-4780-915f-25f4a4a6555b, .uuid-628184b1-3aa2-4a30-86b8-5a8f23ec830d, .uuid-a2c15eb7-46c1-4c44-a09a-f71657870e8a, .uuid-89c7018f-1369-490e-864c-3d0fe3b5c7a5, .uuid-5b7177f6-9ce2-4698-9898-69a5b7ad49f2, .uuid-41fb0e1b-cae7-46d8-b16a-96f1edd9a59e, .uuid-0d50f37c-9dcd-41f5-b8da-9b584289b6bd, .uuid-9fcd3b55-60bc-470c-a26e-14e6d8c57509, .uuid-f83d6e55-91f8-4124-90a4-1acb637c3a0b, .uuid-5a5e30e6-72b0-4641-9912-da9ae3e793e6, .uuid-6a785f4a-d734-43f9-915f-e02ab822e06a, .uuid-e765ad3a-de9e-4dda-97a3-ca83b78aaa45 {
        stroke-width: 0px;
      }

      .uuid-a919d113-cc95-4bb1-843d-4b36b649778f {
        fill: #000;
      }

      .uuid-3fc4dd81-b111-4aad-aaf6-eb4523e87d31 {
        mask: url(#uuid-8080abd2-5771-404b-ac09-e0d01600111c);
      }

      .uuid-571ed2a1-7bfd-4bc8-8905-2a3d6ada6ade, .uuid-dc6df0d0-5c2a-47f4-a1a5-3b132f6bdf8b, .uuid-7038d632-c18c-4230-9b74-73555c29d8a5 {
        opacity: .3;
      }

      .uuid-571ed2a1-7bfd-4bc8-8905-2a3d6ada6ade, .uuid-5b7177f6-9ce2-4698-9898-69a5b7ad49f2, .uuid-5a5e30e6-72b0-4641-9912-da9ae3e793e6 {
        fill: #fff;
      }

      .uuid-dc6df0d0-5c2a-47f4-a1a5-3b132f6bdf8b, .uuid-cc40b4be-c28e-42db-a058-8966b11ee95e {
        fill: #999;
      }

      .uuid-dc6df0d0-5c2a-47f4-a1a5-3b132f6bdf8b, .uuid-7038d632-c18c-4230-9b74-73555c29d8a5, .uuid-89c7018f-1369-490e-864c-3d0fe3b5c7a5, .uuid-4efd72a5-f81e-414b-a65c-60f1a9633369 {
        mix-blend-mode: multiply;
      }

      .uuid-c699fd9d-8575-4b64-9810-d83c181ece72 {
        isolation: isolate;
      }

      .uuid-62e80753-87cb-4062-8311-cb156759ff33 {
        fill: #414042;
      }

      .uuid-07f8e760-2cec-490a-97e0-8af7ad2d3eee {
        fill: #d19067;
      }

      .uuid-83c28ec9-dd2e-4849-adb4-ba44166d53fc {
        fill: #fb4d48;
      }

      .uuid-31afb815-2d50-439d-84c4-cbbc37557ff2 {
        fill: #d1d3d4;
      }

      .uuid-1fd0f7a5-39eb-4d94-8fd7-0a2d15b22ad8 {
        fill: url(#uuid-c04f3459-4e53-477b-9cff-c9dede3d2680);
        mix-blend-mode: soft-light;
      }

      .uuid-92d88ef4-febd-4b4d-a381-3d4e69172734 {
        fill: #42b7ff;
        opacity: .5;
      }

      .uuid-92d88ef4-febd-4b4d-a381-3d4e69172734, .uuid-9fcd3b55-60bc-470c-a26e-14e6d8c57509, .uuid-6a785f4a-d734-43f9-915f-e02ab822e06a, .uuid-e765ad3a-de9e-4dda-97a3-ca83b78aaa45 {
        mix-blend-mode: screen;
      }

      .uuid-7dbf5543-00e8-4780-915f-25f4a4a6555b {
        fill: url(#uuid-871c3be5-e521-4555-8a6d-0565544214e2);
      }

      .uuid-628184b1-3aa2-4a30-86b8-5a8f23ec830d {
        fill: #6d4b35;
      }

      .uuid-a2c15eb7-46c1-4c44-a09a-f71657870e8a {
        fill: #1d1f1c;
      }

      .uuid-f771de16-18a5-4ef0-89d2-23a63f87f171 {
        mask: url(#uuid-25bd4db9-af5f-44c1-9804-c0f72676f507);
      }

      .uuid-89c7018f-1369-490e-864c-3d0fe3b5c7a5 {
        fill: url(#uuid-7c27c9e4-40ab-426c-b7c0-7d63a51606cc);
      }

      .uuid-5b7177f6-9ce2-4698-9898-69a5b7ad49f2 {
        opacity: .4;
      }

      .uuid-41fb0e1b-cae7-46d8-b16a-96f1edd9a59e {
        fill: url(#uuid-660b4d1d-de02-4324-9ccb-f48345199b07);
      }

      .uuid-0d50f37c-9dcd-41f5-b8da-9b584289b6bd {
        fill: #daa685;
      }

      .uuid-4efd72a5-f81e-414b-a65c-60f1a9633369 {
        opacity: .6;
      }

      .uuid-9fcd3b55-60bc-470c-a26e-14e6d8c57509 {
        fill: url(#uuid-b898a883-169e-4248-9eea-42a125df7236);
      }

      .uuid-f83d6e55-91f8-4124-90a4-1acb637c3a0b {
        fill: #916447;
      }

      .uuid-6a785f4a-d734-43f9-915f-e02ab822e06a {
        fill: #ff8f8f;
      }

      .uuid-e765ad3a-de9e-4dda-97a3-ca83b78aaa45 {
        fill: url(#uuid-047c886b-eef8-4a10-9be1-e1e4dc55a00f);
      }

      .uuid-33792853-d4c1-4a80-98ef-7999259cfc96 {
        filter: url(#uuid-827c1d0e-b2a3-47c8-a526-53f7f64e7f5d);
      }

      .uuid-ac77886d-9398-4aae-9f75-c4662ca40ae9 {
        mask: url(#uuid-4dc0caa1-cd5f-4cda-8619-903b60a2fbbf);
      }
    </style>
    <filter id="uuid-827c1d0e-b2a3-47c8-a526-53f7f64e7f5d" x="0" y="0" width="3060" height="1980" color-interpolation-filters="sRGB" filterUnits="userSpaceOnUse">
      <feFlood flood-color="#fff" result="bg"/>
      <feBlend in="SourceGraphic" in2="bg"/>
    </filter>
    <filter id="uuid-3d1a7947-89f0-4539-bcc5-7eab2435fcda" x="0" y="-9182" width="3060" height="32766" color-interpolation-filters="sRGB" filterUnits="userSpaceOnUse">
      <feFlood flood-color="#fff" result="bg"/>
      <feBlend in="SourceGraphic" in2="bg"/>
    </filter>
    <mask id="uuid-25bd4db9-af5f-44c1-9804-c0f72676f507" data-name="mask-1" x="0" y="-9182" width="3060" height="32766" maskUnits="userSpaceOnUse"/>
    <radialGradient id="uuid-7c27c9e4-40ab-426c-b7c0-7d63a51606cc" cx="2045.87" cy="725.32" fx="2045.87" fy="725.32" r="429.78" gradientTransform="translate(-5753.1 -680.77) scale(3.56 2.3)" gradientUnits="userSpaceOnUse">
      <stop offset="0" stop-color="#000"/>
      <stop offset=".51" stop-color="#000"/>
      <stop offset="1" stop-color="#fff"/>
    </radialGradient>
    <mask id="uuid-bf109566-9751-4bfb-81af-1240c190f496" data-name="mask" x="0" y="0" width="3060" height="1980" maskUnits="userSpaceOnUse">
      <g class="uuid-33792853-d4c1-4a80-98ef-7999259cfc96">
        <g class="uuid-f771de16-18a5-4ef0-89d2-23a63f87f171">
          <rect class="uuid-89c7018f-1369-490e-864c-3d0fe3b5c7a5" width="3060" height="1980"/>
        </g>
      </g>
    </mask>
    <radialGradient id="uuid-c04f3459-4e53-477b-9cff-c9dede3d2680" data-name="åçûìßííûé ãðàäèåíò 2" cx="2045.87" cy="725.32" fx="2045.87" fy="725.32" r="429.78" gradientTransform="translate(-5753.1 -680.77) scale(3.56 2.3)" gradientUnits="userSpaceOnUse">
      <stop offset="0" stop-color="#1c1b1a"/>
      <stop offset=".49" stop-color="#1c1b1a"/>
      <stop offset="1" stop-color="#1c1b1a"/>
    </radialGradient>
    <linearGradient id="uuid-660b4d1d-de02-4324-9ccb-f48345199b07" data-name="åçûìßííûé ãðàäèåíò 32" x1="795.65" y1="820.43" x2="2331.82" y2="1148.59" gradientUnits="userSpaceOnUse">
      <stop offset="0" stop-color="#fff"/>
      <stop offset=".28" stop-color="#9ef"/>
      <stop offset="1" stop-color="#ff8f8f"/>
    </linearGradient>
    <radialGradient id="uuid-871c3be5-e521-4555-8a6d-0565544214e2" data-name="åçûìßííûé ãðàäèåíò 6" cx="2379.34" cy="-2822.75" fx="2379.34" fy="-2822.75" r="78.76" gradientTransform="translate(1430.55 4398.06) rotate(-42.04)" gradientUnits="userSpaceOnUse">
      <stop offset="0" stop-color="#ffa088"/>
      <stop offset=".65" stop-color="#ed5a2b"/>
      <stop offset="1" stop-color="#e53900"/>
    </radialGradient>
    <radialGradient id="uuid-b898a883-169e-4248-9eea-42a125df7236" data-name="åçûìßííûé ãðàäèåíò 48" cx="-314.35" cy="4826.05" fx="-314.35" fy="4826.05" r="521.88" gradientTransform="translate(2514.96 -2988.52) scale(1 .79)" gradientUnits="userSpaceOnUse">
      <stop offset="0" stop-color="#fff"/>
      <stop offset=".36" stop-color="#6c6c6c"/>
      <stop offset=".52" stop-color="#323232"/>
      <stop offset=".61" stop-color="#1e1e1e"/>
      <stop offset=".72" stop-color="#0d0d0d"/>
      <stop offset=".85" stop-color="#030303"/>
      <stop offset="1" stop-color="#000"/>
    </radialGradient>
    <mask id="uuid-8080abd2-5771-404b-ac09-e0d01600111c" data-name="mask-2" x="1625.81" y="329.73" width="1149.27" height="975.6" maskUnits="userSpaceOnUse">
      <ellipse class="uuid-9fcd3b55-60bc-470c-a26e-14e6d8c57509" cx="2200.44" cy="817.53" rx="581.01" ry="455.13" transform="translate(-120.1 1171.62) rotate(-29.06)"/>
    </mask>
    <radialGradient id="uuid-047c886b-eef8-4a10-9be1-e1e4dc55a00f" data-name="åçûìßííûé ãðàäèåíò 48" cx="-1237.04" cy="4179.67" fx="-1237.04" fy="4179.67" r="467.94" gradientTransform="translate(404.86 -2411.91) rotate(-29.16) scale(.87 .78) skewX(-4.01)" xlink:href="#uuid-b898a883-169e-4248-9eea-42a125df7236"/>
    <mask id="uuid-4dc0caa1-cd5f-4cda-8619-903b60a2fbbf" data-name="mask-3" x="386.14" y="650.36" width="890.58" height="856.87" maskUnits="userSpaceOnUse">
      <path class="uuid-e765ad3a-de9e-4dda-97a3-ca83b78aaa45" d="M1226.33,858.49c93.29,202.9-7.88,466.01-225.98,587.68-218.1,121.67-470.52,55.83-563.82-147.07-93.29-202.9,7.88-466.01,225.98-587.68,218.1-121.67,470.52-55.83,563.82,147.07Z"/>
    </mask>
  </defs>
  <g class="uuid-c699fd9d-8575-4b64-9810-d83c181ece72">
    <g>
      <g>
        <rect class="uuid-a2c15eb7-46c1-4c44-a09a-f71657870e8a" width="3060" height="1980"/>
        <g class="uuid-c6c9628c-a097-463a-93a7-b52982af4c90">
          <rect class="uuid-1fd0f7a5-39eb-4d94-8fd7-0a2d15b22ad8" width="3060" height="1980"/>
        </g>
      </g>
      <g>
        <path class="uuid-41fb0e1b-cae7-46d8-b16a-96f1edd9a59e" d="M997.33,1458.92c-3.04,0-6.02-.12-8.86-.37-22.08-1.91-40.94-11.61-53.11-27.32-4.39-5.68-7.63-11.1-12.82-24.19l-54.27-18.76v-86.71c-2.67-.6-5.61-1.21-8.85-1.81-67.04-12.51-123.46-58.15-154.79-125.22-34.26-73.36-32.71-159.52,4.05-224.84,22.75-40.44,57.9-71.24,101.66-89.08,16-6.53,32.62-11.04,49.4-13.43,2.82-.4,5.67-.74,8.52-1.02v-6.87l302.7-63,1.55.55v-.86l26.5-5.51c-3.21-17.92-2.02-36.54,3.76-54.33,15.06-46.36,57.93-77.52,106.66-77.52,11.77,0,23.44,1.85,34.68,5.51,28.5,9.26,51.68,29.07,65.27,55.77,4.07,7.99,7.14,16.33,9.17,24.88l546.39-113.72,25.6,8.83c28.53-40.37,67.05-70.66,110.57-86.52,22.35-8.14,45.65-12.27,69.26-12.27,22.16,0,44.33,3.65,65.9,10.84,87.29,29.1,142.35,108.47,143.7,207.13.87,63.23-20.19,122.85-57.73,167.04v272.83l-264.59,55.04-35.39-12.26v19.65l-582.62,121.24-131.81-43.33v70.74l-242.12,50.41c-15.93,8.81-33.39,14.73-50.81,17.21-5.98.85-11.9,1.28-17.6,1.28Z"/>
        <path class="uuid-a919d113-cc95-4bb1-843d-4b36b649778f" d="M2348.29,739.48c-1.17-84.76-47.92-152.77-122.03-177.47-18.33-6.11-37.13-9.21-55.87-9.21-19.89,0-39.54,3.49-58.4,10.36-44.62,16.26-83.15,50.78-108.1,94.86l-41.01-14.14-150.28,31.28-18.83,14.35v-10.43l-404.92,84.27c2.67-16.68.11-33.72-7.71-49.07-9.75-19.15-26.38-33.35-46.82-39.99-8.07-2.62-16.44-3.95-24.88-3.95-34.95,0-65.7,22.35-76.5,55.6-7.71,23.72-3.76,48.48,8.68,68.05l-37.38,7.78v19.9l-35.48-12.53-268.77,55.94v12.23c-11.84-.81-23.81-.44-35.78,1.27-14.2,2.02-28.29,5.86-41.89,11.4-37.06,15.11-66.8,41.13-86,75.26-31.83,56.56-32.96,131.62-2.95,195.87,26.94,57.69,75.01,96.86,131.88,107.47,16.01,2.99,27.08,6.34,34.74,9.54v87.57l47,16.25c8.4,23.32,10.88,26.56,13.44,29.87,4.74,6.11,13.92,13.7,30.77,15.15,5.8.5,12.46.25,19.27-.71,15.3-2.18,30.48-7.77,43.85-15.83l221.84-46.19v-70.76l37.82-7.85,127.81,44.16,145.33-30.25s17.64-13.32,22.95-17.36v12.57l223.31-46.46v-18.91l16.81,15.42,140.41-29.22v-38.41l69.22,23.98,230.76-48.01v-232.82l-21.33-7.33c49.58-37.7,80.05-102.08,79.06-173.5Z"/>
        <g>
          <path class="uuid-a919d113-cc95-4bb1-843d-4b36b649778f" d="M1229.88,936.17l-63.86,48.82-101.74,21.18v20.55l33.47-1.1v44.34l-158.11,32.91v-44.63l33.47-12.84v-104.24l-33.47,1.1v-44.93l226.38-47.12,63.86,22.53v63.42ZM1064.28,921.9v33.77l62.98-13.11,11.45-8.96v-20.92l-11.45-3.89-62.98,13.11Z"/>
          <path class="uuid-a919d113-cc95-4bb1-843d-4b36b649778f" d="M1368.08,858.96v104.24l33.48-1.09v44.63l-157.68,32.82v-44.63l33.48-12.84v-104.24l-33.48,1.09v-44.93l157.68-32.82v44.93l-33.48,12.84Z"/>
          <path class="uuid-a919d113-cc95-4bb1-843d-4b36b649778f" d="M1754.11,727.82v44.93l-33.47,12.84v154.74l-88.97,18.52-101.74-93.34v64.01l33.47-1.1v44.63l-144.02,29.98v-44.63l33.48-12.84v-104.24l-33.48,1.09v-44.93l132.13-27.5,91.61,90.75v-59.01l-33.48,1.09v-44.93l144.46-30.07Z"/>
          <path class="uuid-a919d113-cc95-4bb1-843d-4b36b649778f" d="M1938.69,761.34l-8.81-19.6-65.18,13.57-12.78,9.43v90.69l13.21,4.31,51.09-10.63,13.65-10.48v-28.19l-41.4,8.62v-35.24l132.13-27.5v121.56l-69.14,14.39-8.81-14.31-29.07,22.2-81.48,16.96-70.91-24.59v-128.32l68.27-52.09,130.8-27.22,60.34,20.72v38.66l-81.92,17.05Z"/>
          <path class="uuid-a919d113-cc95-4bb1-843d-4b36b649778f" d="M1229.88,1150.24l-63.86,48.82-101.74,21.18v20.55l33.47-1.1v44.34l-158.11,32.91v-44.63l33.47-12.84v-104.24l-33.47,1.1v-44.93l226.38-47.12,63.86,22.53v63.42ZM1064.28,1135.96v33.77l62.98-13.11,11.45-8.96v-20.92l-11.45-3.89-62.98,13.11Z"/>
          <path class="uuid-a919d113-cc95-4bb1-843d-4b36b649778f" d="M1465.06,1189.23c-11.16,8.49-22.31,16.93-33.47,25.32l-125.96,26.21-66.5-22.86v-133.01l64.3-49.21,130.8-27.22,64.3,22.44v133.01c-11.16,8.39-22.31,16.83-33.47,25.32ZM1341.74,1078.22l-11.89,8.66v91.57l12.33,4.21,53.29-11.09,12.33-9.34v-91.57l-11.89-3.71-54.17,11.27Z"/>
          <path class="uuid-a919d113-cc95-4bb1-843d-4b36b649778f" d="M1845.68,922.83v44.93l-33.48,12.84v154.74l-88.96,18.52-101.74-93.34v64.01l33.47-1.09v44.63l-144.02,29.97v-44.63l33.47-12.84v-104.24l-33.47,1.09v-44.93l132.13-27.5,91.61,90.75v-59.01l-33.48,1.09v-44.93l144.47-30.07Z"/>
          <path class="uuid-a919d113-cc95-4bb1-843d-4b36b649778f" d="M2030.26,956.35l-8.81-19.6-65.19,13.57-12.77,9.43v90.69l13.21,4.32,51.09-10.63,13.65-10.48v-28.19l-41.4,8.62v-35.24l132.13-27.5v121.56l-69.15,14.39-8.81-14.31-29.07,22.2-81.48,16.96-70.91-24.59v-128.31l68.27-52.08,130.81-27.22,60.34,20.72v38.66l-81.92,17.05Z"/>
        </g>
        <path class="uuid-62e80753-87cb-4062-8311-cb156759ff33" d="M2052.36,871.72l-23.82,4.96v-176.7l-67.75-23.27-134.7,28.03-64.05,48.87v-35.54l-160.32,33.37v57.12l-47.65-47.2-142.62,29.68v59.57l33.48-1.09v90.59l-33.48,12.84v52.17l-1.97.41v-51.61l-33.48,1.09v-90.59l33.48-12.84v-60.13l-173.54,36.12v38.92l-69.38-24.48-234.86,48.88v59.57l33.47-1.1v90.59l-33.47,12.84v111.73l33.47-1.1v90.59l-33.47,12.84v59.83l173.97-36.21v-58.98l-33.47,1.1v-5.91l97.19-20.23,61.79-47.24v64.35l73.91,25.41,129.83-27.02,1.42-1.06c11.17-8.4,22.33-16.85,33.51-25.35,11.05-8.41,22.11-16.77,33.16-25.09v37.32l159.87-33.27v-59.27l-33.47,1.09v-37.79l91.45,83.9,99.26-20.66v-155.73l24.71-9.48v116.62l78.31,27.15,85.39-17.78,23.53-17.97,7.13,11.59,80.91-16.84v-184.36l-67.75-23.27ZM1943.45,894.38l-12.69,2.64,9.74-7.44,2.95,4.79ZM1859.86,768.74l8.16-6.02,57.25-11.91,7.1,15.8-51.81,10.78v51.43l41.4-8.62v14.53l-9.11,6.99-47.25,9.83-5.74-1.87v-80.94ZM1903.84,910.29l-50.23,38.33v-27.87l50.23-10.46ZM1753.27,781.56v116.62l64.49,22.36-89.2,18.56v-148.07l24.71-9.48ZM1635.19,809.91v31.81l-31.08-30.79,31.08-1.02ZM1537.86,883.53l84.64,77.65-51.17,10.65v-51.61l-33.47,1.1v-37.79ZM1072.21,928.34l54.55-11.35,4.03,1.37v11.37l-6.95,5.44-51.62,10.74v-17.57ZM1130.78,1143.8l-6.95,5.44-51.62,10.75v-17.57l54.55-11.35,4.03,1.37v11.37ZM1166.57,1056.07l-60.89,12.67v-51.31l-33.47,1.1v-5.91l97.19-20.23,68.41-52.29v-53.02l31.62-1.03v90.59l-33.48,12.84v59.83l50.34-10.48-53.21,40.72-66.51-23.47ZM1399.87,1158.28l-7.77,5.88-49.42,10.29-4.91-1.68v-81.86l7.25-5.28,50.48-10.51,4.36,1.36v81.8ZM1448.52,1005.05l54.5-11.34v30.37l-54.5-19.02ZM1536.49,1135.11l-30.03,11.52v-101.13l30.03-.98v90.59ZM1652.03,962.7l41.26-8.59v49.45l-41.26-40.87ZM1726.76,1036.73l-31.09-30.79,31.09-1.02v31.81ZM2013.52,1015.21v14.53l-9.11,6.99-47.25,9.83-5.73-1.87v-80.94l8.16-6.02,57.25-11.91,7.1,15.8-51.81,10.78v51.43l41.4-8.62Z"/>
        <g>
          <path class="uuid-5a5e30e6-72b0-4641-9912-da9ae3e793e6" d="M1229.88,936.17l-63.86,48.82-101.74,21.18v20.55l33.47-1.1v44.34l-158.11,32.91v-44.63l33.47-12.84v-104.24l-33.47,1.1v-44.93l226.38-47.12,63.86,22.53v63.42ZM1064.28,921.9v33.77l62.98-13.11,11.45-8.96v-20.92l-11.45-3.89-62.98,13.11Z"/>
          <path class="uuid-5a5e30e6-72b0-4641-9912-da9ae3e793e6" d="M1368.08,858.96v104.24l33.48-1.09v44.63l-157.68,32.82v-44.63l33.48-12.84v-104.24l-33.48,1.09v-44.93l157.68-32.82v44.93l-33.48,12.84Z"/>
          <path class="uuid-5a5e30e6-72b0-4641-9912-da9ae3e793e6" d="M1754.11,727.82v44.93l-33.47,12.84v154.74l-88.97,18.52-101.74-93.34v64.01l33.47-1.1v44.63l-144.02,29.98v-44.63l33.48-12.84v-104.24l-33.48,1.09v-44.93l132.13-27.5,91.61,90.75v-59.01l-33.48,1.09v-44.93l144.46-30.07Z"/>
          <path class="uuid-5a5e30e6-72b0-4641-9912-da9ae3e793e6" d="M1938.69,761.34l-8.81-19.6-65.18,13.57-12.78,9.43v90.69l13.21,4.31,51.09-10.63,13.65-10.48v-28.19l-41.4,8.62v-35.24l132.13-27.5v121.56l-69.14,14.39-8.81-14.31-29.07,22.2-81.48,16.96-70.91-24.59v-128.32l68.27-52.09,130.8-27.22,60.34,20.72v38.66l-81.92,17.05Z"/>
          <path class="uuid-5a5e30e6-72b0-4641-9912-da9ae3e793e6" d="M1229.88,1150.24l-63.86,48.82-101.74,21.18v20.55l33.47-1.1v44.34l-158.11,32.91v-44.63l33.47-12.84v-104.24l-33.47,1.1v-44.93l226.38-47.12,63.86,22.53v63.42ZM1064.28,1135.96v33.77l62.98-13.11,11.45-8.96v-20.92l-11.45-3.89-62.98,13.11Z"/>
          <path class="uuid-5a5e30e6-72b0-4641-9912-da9ae3e793e6" d="M1465.06,1189.23c-11.16,8.49-22.31,16.93-33.47,25.32l-125.96,26.21-66.5-22.86v-133.01l64.3-49.21,130.8-27.22,64.3,22.44v133.01c-11.16,8.39-22.31,16.83-33.47,25.32ZM1341.74,1078.22l-11.89,8.66v91.57l12.33,4.21,53.29-11.09,12.33-9.34v-91.57l-11.89-3.71-54.17,11.27Z"/>
          <path class="uuid-5a5e30e6-72b0-4641-9912-da9ae3e793e6" d="M1845.68,922.83v44.93l-33.48,12.84v154.74l-88.96,18.52-101.74-93.34v64.01l33.47-1.09v44.63l-144.02,29.97v-44.63l33.47-12.84v-104.24l-33.47,1.09v-44.93l132.13-27.5,91.61,90.75v-59.01l-33.48,1.09v-44.93l144.47-30.07Z"/>
          <path class="uuid-5a5e30e6-72b0-4641-9912-da9ae3e793e6" d="M2030.26,956.35l-8.81-19.6-65.19,13.57-12.77,9.43v90.69l13.21,4.32,51.09-10.63,13.65-10.48v-28.19l-41.4,8.62v-35.24l132.13-27.5v121.56l-69.15,14.39-8.81-14.31-29.07,22.2-81.48,16.96-70.91-24.59v-128.31l68.27-52.08,130.81-27.22,60.34,20.72v38.66l-81.92,17.05Z"/>
        </g>
        <g>
          <polygon class="uuid-31afb815-2d50-439d-84c4-cbbc37557ff2" points="1247.84 997.64 1247.84 1034.67 1383.1 1006.52 1397.59 970.32 1397.59 966.2 1364.12 967.29 1364.12 856.23 1397.59 843.4 1397.59 806.07 1247.84 837.23 1247.84 874.84 1281.32 873.75 1281.32 984.8 1247.84 997.64"/>
          <polygon class="uuid-31afb815-2d50-439d-84c4-cbbc37557ff2" points="2108.21 921.48 2101.84 937.4 2108.21 936.07 2108.21 921.48"/>
          <polygon class="uuid-31afb815-2d50-439d-84c4-cbbc37557ff2" points="1765.17 766.18 1765.17 889.71 1811.18 905.67 1847.96 813.76 1847.96 762.73 1863.05 751.6 1873.74 749.38 1892.25 703.11 1831.16 715.83 1765.17 766.18"/>
          <polygon class="uuid-31afb815-2d50-439d-84c4-cbbc37557ff2" points="1647.09 870.24 1629.22 852.54 1600.34 924.71 1632.85 954.54 1716.67 937.09 1716.67 782.86 1750.14 770.02 1750.14 732.69 1670.57 749.25 1647.09 807.91 1647.09 870.24"/>
          <polygon class="uuid-31afb815-2d50-439d-84c4-cbbc37557ff2" points="1979.17 769 1935.31 878.59 1943.73 872.15 1953.38 887.83 1992.62 879.66 2016.65 819.64 2016.65 761.2 1979.17 769"/>
          <polygon class="uuid-31afb815-2d50-439d-84c4-cbbc37557ff2" points="1939.53 957.74 1954.61 946.61 1966.84 944.07 1985.36 897.81 1922.72 910.84 1922.26 911.2 1856.73 1074.9 1856.73 1084.73 1903.98 1101.11 1939.53 1012.3 1939.53 957.74"/>
          <polygon class="uuid-31afb815-2d50-439d-84c4-cbbc37557ff2" points="2016.65 741.06 2016.65 708.46 2005.01 704.46 1987.97 747.03 2016.65 741.06"/>
          <polygon class="uuid-31afb815-2d50-439d-84c4-cbbc37557ff2" points="1716.48 1142.26 1798.78 936.64 1705.18 956.12 1705.18 993.73 1738.65 992.63 1738.65 1065.25 1641.8 969.31 1577.09 982.78 1548.39 1054.5 1548.39 1143.29 1514.92 1156.13 1514.92 1193.16 1651 1164.83 1651 1127.52 1617.53 1128.62 1617.53 1051.49 1716.48 1142.26"/>
          <polygon class="uuid-31afb815-2d50-439d-84c4-cbbc37557ff2" points="951.86 1057.8 943.6 1060.97 943.6 1078.43 951.86 1057.8"/>
          <polygon class="uuid-31afb815-2d50-439d-84c4-cbbc37557ff2" points="1325.89 1084.86 1340.1 1074.51 1357.32 1070.93 1375.84 1024.66 1305.12 1039.38 1243.09 1086.85 1243.09 1215.07 1292.79 1232.16 1325.89 1149.46 1325.89 1084.86"/>
          <polygon class="uuid-31afb815-2d50-439d-84c4-cbbc37557ff2" points="2108.21 1069.67 2108.21 956.21 2093.05 959.37 2044.15 1081.54 2044.95 1082.84 2108.21 1069.67"/>
          <path class="uuid-31afb815-2d50-439d-84c4-cbbc37557ff2" d="M1093.78,1243.78l-33.47,1.1v-27.87l104.01-21.65,61.59-47.08v-58.66l-60.17-21.23-109.6,22.81-86.21,215.38,123.86-25.78v-37.02ZM1060.31,1132.74l67.19-13.99,15.16,5.15v25.69l-13.7,10.72-68.66,14.29v-41.86Z"/>
          <polygon class="uuid-31afb815-2d50-439d-84c4-cbbc37557ff2" points="948.47 938 977.07 937.07 977.07 994.8 1021.27 884.39 965.26 896.05 948.47 938"/>
          <polygon class="uuid-31afb815-2d50-439d-84c4-cbbc37557ff2" points="1142.67 909.84 1142.67 935.53 1128.97 946.25 1112.82 949.61 1094.3 995.86 1164.32 981.29 1225.91 934.21 1225.91 875.55 1165.74 854.32 1149.61 857.68 1130.4 905.67 1142.67 909.84"/>
          <polygon class="uuid-31afb815-2d50-439d-84c4-cbbc37557ff2" points="1093.78 1066.73 1093.78 1029.72 1080.58 1030.15 1063.4 1073.06 1093.78 1066.73"/>
          <polygon class="uuid-31afb815-2d50-439d-84c4-cbbc37557ff2" points="1423.35 838.31 1450.79 837.42 1469.31 791.14 1423.35 800.71 1423.35 838.31"/>
        </g>
        <g>
          <path class="uuid-a919d113-cc95-4bb1-843d-4b36b649778f" d="M2081.79,1109.74c-32.68,0-62.17-15.16-76.9-30.18-11.85-12.08-13.88-23.81-13.5-31.53.36-7.19.71-13.98,45.07-118.92l1.1-2.61.1-.86c.61-5.53-1.86-19.16-25.28-48.29-36.26-45.07-47.25-106.1-30.14-167.42,19.05-68.31,68.76-124.54,129.74-146.77,18.86-6.87,38.51-10.36,58.4-10.36,18.74,0,37.54,3.1,55.87,9.21,74.1,24.7,120.86,92.71,122.03,177.47,1.25,91.03-48.57,170.65-123.98,198.13l-.32.12c-5.18,1.88-10.52,3.52-15.86,4.88l-8.81,2.25-1.07-.36-1.87.62c-.94.31-1.97.67-3.09,1.08-15.26,5.56-28.79,14.02-34.48,21.55l-.76,1.01-.29,1.23c-3.1,13.31-5.45,23.13-7,29.16-8.97,35.05-14.69,57.23-19.07,70.76-3.66,11.34-9.79,30.31-29.02,37.32-6.7,2.44-12.58,2.45-16.1,2.46h-1.44c-1.21.04-2.28.06-3.34.06Z"/>
          <path class="uuid-07f8e760-2cec-490a-97e0-8af7ad2d3eee" d="M2097.83,1072.21c-1,3.28-3.84,5.64-7.24,6.02-35.63,4.01-60.03-17.09-65.41-21.9-2.6-2.32-3.5-6-2.31-9.28,6.3-17.35,27.17-74.07,42.17-105.72.65-1.36,1.2-2.75,1.67-4.16v-.04c7.54-18.99,23.43-61.35,23.43-61.35l56.71,18.91s-12.71,43.42-18.08,63.12v.04c-.48,1.4-.87,2.85-1.17,4.33-7.01,34.42-24.43,92.53-29.76,110.02Z"/>
          <path class="uuid-628184b1-3aa2-4a30-86b8-5a8f23ec830d" d="M2090.13,875.79s-15.89,42.36-23.41,61.35c8.8-26.39-13.3-58.23-30.18-79.21l53.59,17.87Z"/>
          <path class="uuid-0d50f37c-9dcd-41f5-b8da-9b584289b6bd" d="M2069.52,904.68c-3.66-11.07-9.83-21.95-16.58-31.83-1.45-2.12.64-4.83,3.09-4.02l25.94,8.65c1.46.49,2.23,2.07,1.69,3.49-2.17,5.76-5.51,14.61-9.03,23.88-.9,2.38-4.31,2.26-5.11-.17Z"/>
          <path class="uuid-83c28ec9-dd2e-4849-adb4-ba44166d53fc" d="M2200.45,912.57l-163.91-54.65c-90.86-112.95,31.15-316.1,179.91-266.51,148.63,49.55,124.23,285.33-16,321.15Z"/>
          <path class="uuid-628184b1-3aa2-4a30-86b8-5a8f23ec830d" d="M2200.44,912.57c-26.1,6.66-62.88,18.87-71.68,45.25,5.37-19.71,18.08-63.12,18.08-63.12l53.6,17.87Z"/>
          <path class="uuid-0d50f37c-9dcd-41f5-b8da-9b584289b6bd" d="M2141.8,927.24c2.74-9.53,5.38-18.61,7.1-24.52.42-1.46,1.99-2.26,3.45-1.78l25.94,8.65c2.45.82,2.5,4.24.06,5.07-11.33,3.86-22.8,8.85-32.37,15.51-2.1,1.46-4.89-.49-4.19-2.93Z"/>
          <path class="uuid-0d50f37c-9dcd-41f5-b8da-9b584289b6bd" d="M2097.59,900.95c-3.26-1.83-6.77-3.49-10.65-3.46-1.74.01-3.56.41-5.39,1.06-4.97,13.13-10.99,28.9-14.83,38.6v.04c-.48,1.4-1.03,2.8-1.68,4.16-15,31.66-35.87,88.37-42.17,105.72-1.19,3.28-.29,6.96,2.31,9.28,1.15,1.03,3.18,2.81,6.01,4.93,10.14.78,19.99-1.69,24.06-13.99,5.15-15.56,9.43-31.52,16.38-46.34,7.36-15.68,13.51-31.91,21.36-47.33,5.86-11.51,13.11-26.91,11.93-39.91-.65-7.13-1.89-9.7-7.34-12.76Z"/>
          <path class="uuid-571ed2a1-7bfd-4bc8-8905-2a3d6ada6ade" d="M2097.26,897.58c-9.66,1.85-15.33,24.46-47.86,122.04-6.17,18.5,7.53,33.05,23.5,3.93,5.19-9.46,8.07-19.97,11.99-30.07,8.06-20.77,9.54-18.54,14.21-29.01,2.66-5.96,5.47-11.72,7.49-17.94,1.92-5.93,2.7-11.32,3.88-17.34,6.5-33.29-12.82-31.68-13.21-31.61Z"/>
          <g class="uuid-8670137e-79b8-4fdd-add0-c12395a4faf2">
            <path class="uuid-f83d6e55-91f8-4124-90a4-1acb637c3a0b" d="M2090.28,875.84l-.15-.05s-.01.04-.02.05c.05,0,.11,0,.17,0Z"/>
            <path class="uuid-f83d6e55-91f8-4124-90a4-1acb637c3a0b" d="M2128.75,957.86v-.04c5.39-19.71,18.1-63.12,18.1-63.12l-56.32-18.78c2.93,5.88,11.61,8.39,17.2,10.9,25.27,11.34,31.9,14.99,6.08,96.89-3.28,10.4-6.18,20.89-9.73,31.21-4.71,13.68-10,27.26-14.59,41.05-3.97,11.9-3.81,13.68-13.68,17.69-2.63,1.07-6.79,1.77-9.65,3.53,7.37,1.48,15.55,2.04,24.44,1.04,3.4-.38,6.24-2.75,7.24-6.02,5.32-17.49,22.74-75.6,29.76-110.02.3-1.48.69-2.92,1.16-4.33Z"/>
          </g>
          <path class="uuid-571ed2a1-7bfd-4bc8-8905-2a3d6ada6ade" d="M2238.25,613.14c1.93,5.15,1.48,7.88-.9,9.06-9.96,4.98-53.72-17.11-96.58-.1-46.19,18.32-69.78,42.42-79.77,47.6-4.07,2.11-7.69.86-8.81-6.27-2.81-17.85,43.29-53.37,77.06-65.85,37.25-13.76,102.65-1.36,108.99,15.56Z"/>
          <path class="uuid-dc6df0d0-5c2a-47f4-a1a5-3b132f6bdf8b" d="M2225.01,898.05c67.41-33.72,99.24-118.75,86.3-192.68-.77-4.39-3.34-8.34-7.24-10.5-4.19-2.32-8.93-2.23-9.97,7.92-6.29,61.45-32.74,207.53-160.35,172.7-1.29-.35-2.55.21-3.58,1.28-3.13,3.24-1.54,8.7,2.73,10.13l43.16,14.39c16.11,5.37,33.76,4.36,48.95-3.23Z"/>
        </g>
        <g class="uuid-4efd72a5-f81e-414b-a65c-60f1a9633369">
          <path class="uuid-cc40b4be-c28e-42db-a058-8966b11ee95e" d="M1441.37,796.96l-18.02,3.75v37.61l7.56-.25c2.63-4.66,4.88-9.59,6.59-14.83,2.8-8.62,4.03-17.48,3.88-26.28Z"/>
          <path class="uuid-cc40b4be-c28e-42db-a058-8966b11ee95e" d="M1336.12,874.88c8.08,2.62,16.45,3.95,24.87,3.95,1.05,0,2.08-.08,3.12-.12v-22.48l33.48-12.84v-37.33l-110.85,23.07c8.71,20.98,26.13,38.19,49.37,45.75Z"/>
          <path class="uuid-cc40b4be-c28e-42db-a058-8966b11ee95e" d="M943.6,1152.23l33.47-1.1v111.06l-33.47,12.84v37.03l143.61-29.89c.93-6.24,3.21-13.65,6.57-21.26v-17.12l-33.47,1.1v-27.87l66.43-13.83c6.33-16.04,10.18-32.94,11.62-50.21l-9.39,7.35-68.66,14.29v-41.86l67.19-13.99,10.94,3.72c-1.18-15.54-4.24-31.16-9.07-46.51l-185.77,38.67v37.61Z"/>
          <path class="uuid-cc40b4be-c28e-42db-a058-8966b11ee95e" d="M943.6,938.16l33.47-1.1v111.06l-33.47,12.84v37.03l150.18-31.26v-37.02l-33.47,1.1v-27.87l25.74-5.36c-1.33-1.59-2.67-3.19-4.05-4.75-38.08-43.19-87.36-67.14-138.41-68.26v13.59Z"/>
        </g>
        <g>
          <path class="uuid-a919d113-cc95-4bb1-843d-4b36b649778f" d="M1010.45,1426.24c-6.8.97-13.47,1.21-19.27.71-16.85-1.45-26.03-9.04-30.77-15.15-4.4-5.69-8.56-11.08-43.21-119.61l-.86-2.7-.49-.71c-3.13-4.6-13.88-13.33-50.62-20.2-56.87-10.61-104.93-49.78-131.88-107.47-30.01-64.25-28.88-139.31,2.95-195.87,19.2-34.13,48.93-60.15,86-75.26,13.6-5.54,27.7-9.38,41.89-11.4,60.69-8.64,121.29,15.67,166.27,66.68,60.12,68.17,74.18,160.86,35.05,230.76l-1.24,1.65.06.43c-2.49,4.3-5.18,8.52-8.04,12.58l-5.22,7.44-1.05.43-1.02,1.69c-.51.84-1.06,1.78-1.64,2.81-7.97,14.17-12.74,29.4-12.15,38.81l.08,1.26.58,1.12c6.29,12.08,10.88,21.06,13.67,26.69,16,32.42,26.09,52.96,31.6,66.12,4.6,11,12.29,29.38,2.26,47.21-3.49,6.2-7.94,10.05-10.6,12.34l-1.1.96c-16.51,15.05-38.8,25.46-61.26,28.65Z"/>
          <path class="uuid-07f8e760-2cec-490a-97e0-8af7ad2d3eee" d="M1056.96,1360.87c1.38,3.14.76,6.78-1.58,9.29-24.43,26.24-56.69,26.11-63.91,25.96-3.49-.07-6.56-2.28-7.8-5.54-6.52-17.27-27.6-73.91-36.82-107.7-.39-1.46-.88-2.87-1.44-4.24l-.02-.04c-6.65-19.31-22.16-61.81-22.16-61.81l55.36-22.57s18.62,41.23,27.36,59.69l.02.04c.56,1.37,1.2,2.72,1.94,4.04,17.08,30.69,41.69,86.15,49.03,102.89Z"/>
          <path class="uuid-628184b1-3aa2-4a30-86b8-5a8f23ec830d" d="M923.25,1216.78s15.51,42.5,22.16,61.81c-10.5-25.76-48-35.54-74.47-40.49l52.31-21.32Z"/>
          <path class="uuid-0d50f37c-9dcd-41f5-b8da-9b584289b6bd" d="M926.41,1252.13c-9.98-6.02-21.75-10.26-33.31-13.37-2.48-.67-2.66-4.09-.27-5.06l25.32-10.32c1.42-.58,3.04.12,3.56,1.55,2.1,5.79,5.33,14.67,8.69,24.01.86,2.39-1.8,4.52-3.99,3.2Z"/>
          <path class="uuid-408c9526-82ee-4bd1-8925-0532d161471f" d="M1030.93,1172.88l-159.99,65.22c-142.5-26.59-182.14-260.23-36.92-319.42,145.08-59.14,280.05,135.71,196.92,254.2Z"/>
          <path class="uuid-628184b1-3aa2-4a30-86b8-5a8f23ec830d" d="M1030.92,1172.89c-15.48,22.04-35.45,55.26-24.95,81.02-8.75-18.46-27.36-59.69-27.36-59.69l52.32-21.33Z"/>
          <path class="uuid-0d50f37c-9dcd-41f5-b8da-9b584289b6bd" d="M995.96,1222.2c-4.12-9.02-8.03-17.63-10.57-23.24-.63-1.38.04-3.01,1.46-3.59l25.32-10.32c2.39-.97,4.66,1.6,3.35,3.81-6.09,10.31-11.54,21.56-14.47,32.85-.64,2.47-4.03,2.81-5.09.5Z"/>
          <path class="uuid-0d50f37c-9dcd-41f5-b8da-9b584289b6bd" d="M945.28,1231.02c-3.67.73-7.41,1.76-10.34,4.3-1.31,1.14-2.44,2.63-3.4,4.31,4.77,13.2,10.47,29.1,13.87,38.95l.02.04c.56,1.37,1.04,2.79,1.44,4.24,9.22,33.8,30.3,90.43,36.82,107.7,1.23,3.26,4.31,5.47,7.8,5.54,1.55.03,4.25.06,7.77-.17,8.21-6.01,14.08-14.3,9.16-26.28-6.22-15.17-13.36-30.06-17.73-45.84-4.62-16.7-10.52-33.01-14.59-49.83-3.04-12.55-7.56-28.96-16.92-38.06-5.13-4.99-7.75-6.13-13.88-4.9Z"/>
          <path class="uuid-571ed2a1-7bfd-4bc8-8905-2a3d6ada6ade" d="M942.84,1228.69c-6.13,7.69,4.28,28.55,43.12,123.79,7.36,18.06,27.23,20.19,20.4-12.32-2.22-10.56-6.87-20.41-10.47-30.63-7.4-21.02-4.83-20.28-8.1-31.27-1.86-6.25-3.48-12.46-6-18.49-2.41-5.75-5.32-10.36-8.34-15.69-16.74-29.5-30.35-15.71-30.61-15.39Z"/>
          <g class="uuid-8670137e-79b8-4fdd-add0-c12395a4faf2">
            <path class="uuid-f83d6e55-91f8-4124-90a4-1acb637c3a0b" d="M923.39,1216.72l-.14.06s.01.04.02.05c.04-.03.08-.07.13-.11Z"/>
            <path class="uuid-f83d6e55-91f8-4124-90a4-1acb637c3a0b" d="M1005.98,1253.94l-.02-.04c-8.75-18.46-27.36-59.69-27.36-59.69l-54.97,22.41c6.05,2.56,14.27-1.19,20.15-2.92,26.56-7.84,33.97-9.39,67.69,69.59,4.28,10.03,8.91,19.88,12.93,30.03,5.33,13.45,10.16,27.2,15.65,40.66,4.73,11.62,6.01,12.86,1.13,22.33-1.3,2.52-4,5.76-5.02,8.96,6.56-3.67,13.14-8.57,19.23-15.12,2.33-2.51,2.95-6.15,1.58-9.29-7.34-16.74-31.95-72.19-49.03-102.89-.74-1.32-1.38-2.67-1.94-4.04Z"/>
          </g>
          <path class="uuid-571ed2a1-7bfd-4bc8-8905-2a3d6ada6ade" d="M864.7,920.98c4.82,2.65,6.25,5.02,5.22,7.46-4.32,10.27-51.91,21.98-73.38,62.79-23.13,43.97-25.36,77.63-29.56,88.06-1.71,4.25-5.27,5.66-10.77.98-13.75-11.72-1.88-68.7,15.63-100.15,19.32-34.69,77.03-67.85,92.86-59.14Z"/>
          <path class="uuid-dc6df0d0-5c2a-47f4-a1a5-3b132f6bdf8b" d="M1040.12,1145.87c29.22-69.48-1.97-154.75-59.93-202.44-3.44-2.83-7.96-4.16-12.33-3.26-4.69.97-8.23,4.12-2.41,12.5,35.23,50.74,110.25,178.85-9.3,235.48-1.21.57-1.8,1.82-1.89,3.3-.27,4.5,4.5,7.61,8.67,5.91l42.13-17.17c15.73-6.41,28.47-18.67,35.05-34.32Z"/>
        </g>
        <g>
          <path class="uuid-a919d113-cc95-4bb1-843d-4b36b649778f" d="M1309.45,831.27c-8.43,0-16.8-1.33-24.87-3.95-42.19-13.71-65.36-59.18-51.65-101.37,10.8-33.26,41.55-55.6,76.5-55.6,8.44,0,16.81,1.33,24.88,3.95,20.44,6.64,37.07,20.85,46.82,39.99,9.76,19.15,11.47,40.95,4.83,61.38-10.81,33.26-41.55,55.6-76.5,55.6Z"/>
          <circle class="uuid-7dbf5543-00e8-4780-915f-25f4a4a6555b" cx="1309.44" cy="750.8" r="49.45" transform="translate(-199.97 754.19) rotate(-29.96)"/>
          <path class="uuid-5b7177f6-9ce2-4698-9898-69a5b7ad49f2" d="M1323.69,710.27c5.66,10.51-14.12,5.8-27.18,12.66-14.44,7.59-24.58,22.86-27.58,12.89-2.17-7.22,6.76-20.64,20.32-27.11,13.56-6.47,30.86-5.08,34.44,1.56Z"/>
          <g class="uuid-7038d632-c18c-4230-9b74-73555c29d8a5">
            <path class="uuid-cc40b4be-c28e-42db-a058-8966b11ee95e" d="M1274.63,773.7c-2.89-.63-4.79,3.1-2.86,5.42.02.02.04.05.06.07,17.22,20.59,47.32,23.41,67.21,6.31,3.05-2.62,5.69-5.57,7.9-8.75,7.51-10.78,10.13-24.22,7.63-37.04-.59-3.01-4.47-3.86-6.03-1.29-6.41,10.53-16.11,27.18-30.52,33.24-14.84,6.25-30.6,4.84-43.39,2.04Z"/>
          </g>
        </g>
      </g>
      <g class="uuid-3fc4dd81-b111-4aad-aaf6-eb4523e87d31">
        <ellipse class="uuid-6a785f4a-d734-43f9-915f-e02ab822e06a" cx="2200.44" cy="817.53" rx="581.01" ry="455.13" transform="translate(-131.8 551.16) rotate(-13.87)"/>
      </g>
      <g class="uuid-ac77886d-9398-4aae-9f75-c4662ca40ae9">
        <ellipse class="uuid-92d88ef4-febd-4b4d-a381-3d4e69172734" cx="831.43" cy="1078.8" rx="446.71" ry="408.08" transform="translate(-199.72 188.96) rotate(-11.59)"/>
      </g>
    </g>
  </g>
</svg>